<svg xmlns="http://www.w3.org/2000/svg" viewBox="0 0 1542 250" version="1.1"><path d="M 1133.780 30.966 C 1112.776 34.792, 1097.365 53.840, 1099.382 73.485 C 1100.862 87.901, 1110.572 99.211, 1132.542 112.106 C 1139.669 116.289, 1150.396 122.589, 1156.381 126.106 C 1168.887 133.456, 1175.027 139.555, 1177.542 147.126 C 1182.758 162.830, 1169.525 177, 1149.644 177 C 1127.325 177, 1112.713 165.025, 1107.368 142.354 C 1105.830 135.830, 1105.373 135, 1103.317 135 L 1101 135 1101 161 L 1101 187 1103.389 187 C 1105.333 187, 1105.901 186.340, 1106.443 183.454 C 1107.604 177.265, 1109.782 177.114, 1126.179 182.091 C 1139.659 186.183, 1141.176 186.434, 1152 186.357 C 1161.098 186.292, 1164.736 185.828, 1169.419 184.133 C 1181.498 179.762, 1190.413 171.968, 1195.739 161.121 C 1198.221 156.067, 1198.500 154.440, 1198.500 145 C 1198.500 135.450, 1198.239 133.967, 1195.612 128.612 C 1189.981 117.132, 1184.419 112.897, 1147.726 92.156 C 1125.377 79.523, 1119.027 73.375, 1118.216 63.586 C 1116.839 46.986, 1135.331 35.957, 1154.684 41.835 C 1170.418 46.615, 1179.630 57.539, 1183.303 75.772 C 1184.436 81.397, 1185.014 82.552, 1186.829 82.820 L 1189 83.139 1189 56.570 C 1189 30.726, 1188.946 30, 1187.013 30 C 1185.697 30, 1184.545 31.154, 1183.598 33.420 C 1181.072 39.465, 1179.423 39.617, 1166.089 35.031 C 1153.330 30.642, 1142.818 29.320, 1133.780 30.966 M 1281.536 31.047 C 1258.582 34.645, 1237.535 50.275, 1227.063 71.500 C 1220.637 84.526, 1219.520 90.085, 1219.530 109 C 1219.539 127.241, 1221.122 135.355, 1226.902 146.806 C 1234.439 161.736, 1245.081 171.868, 1262.357 180.562 C 1269.311 184.061, 1275.421 188.030, 1279.357 191.602 C 1300.458 210.758, 1330.177 224.102, 1359.250 227.477 C 1364.819 228.123, 1365 228.069, 1365 225.776 C 1365 223.623, 1364.358 223.297, 1357.976 222.203 C 1344.556 219.901, 1331.295 211.904, 1322.240 200.653 C 1315.677 192.498, 1311.557 186.109, 1312.350 185.317 C 1312.703 184.964, 1315.821 183.481, 1319.278 182.022 C 1338.082 174.089, 1354.784 155.809, 1361.417 135.900 C 1368.813 113.702, 1366.364 86.150, 1355.294 67 C 1353.156 63.302, 1347.648 56.607, 1342.518 51.470 C 1328.573 37.506, 1314.796 31.281, 1296.057 30.478 C 1291.351 30.277, 1284.816 30.533, 1281.536 31.047 M 1377 35.902 C 1377 37.492, 1378.025 37.921, 1383.250 38.519 C 1391.356 39.446, 1394.771 41.281, 1396.829 45.816 C 1398.330 49.125, 1398.500 55.505, 1398.500 108.500 C 1398.500 161.495, 1398.330 167.875, 1396.829 171.184 C 1394.771 175.719, 1391.356 177.554, 1383.250 178.481 C 1378.015 179.080, 1377 179.506, 1377 181.106 C 1377 182.967, 1378.492 183.010, 1435.217 182.758 L 1493.434 182.500 1499.749 162.616 C 1503.223 151.679, 1505.937 142.622, 1505.782 142.490 C 1505.627 142.357, 1504.600 141.985, 1503.500 141.664 C 1501.798 141.166, 1500.923 142.294, 1497.630 149.240 C 1492.614 159.816, 1484.838 167.859, 1476.990 170.590 C 1472.207 172.254, 1468.559 172.500, 1448.665 172.500 L 1425.830 172.500 1423.515 169.811 C 1420.184 165.941, 1419.693 155.330, 1420.184 97.826 C 1420.557 54.016, 1420.761 49.189, 1422.364 46.171 C 1424.555 42.048, 1430.758 39.052, 1437.168 39.022 C 1443.137 38.994, 1445 38.250, 1445 35.893 C 1445 34.073, 1443.693 34, 1411 34 C 1378.252 34, 1377 34.070, 1377 35.902 M 1279.500 41.347 C 1263.462 46.654, 1252.991 59.510, 1248.020 80 C 1244.087 96.207, 1244.299 121.920, 1248.500 138.503 C 1250.701 147.188, 1257.272 159.974, 1262.554 165.849 C 1265.491 169.116, 1269.517 172.114, 1273.794 174.219 C 1280.207 177.376, 1280.912 177.500, 1292.500 177.500 C 1304.083 177.500, 1304.795 177.375, 1311.193 174.226 C 1324.089 167.877, 1333.267 154.170, 1337.123 135.499 C 1339.931 121.900, 1339.407 92.884, 1336.129 80.500 C 1331.119 61.570, 1320.937 47.831, 1308.285 42.928 C 1301.144 40.161, 1285.655 39.310, 1279.500 41.347 M 75.721 93.433 L 40.942 127.766 78.154 164.383 L 115.366 201 138.183 201 C 150.732 201, 161 200.799, 161 200.553 C 161 200.307, 144.238 183.447, 123.750 163.086 L 86.500 126.067 120.500 92.587 L 154.500 59.107 132.500 59.104 L 110.500 59.101 75.721 93.433" stroke="none" fill="#fc3838" fill-rule="evenodd"/><path d="M 746 126.021 L 746 211.042 765.750 210.771 L 785.500 210.500 785.790 202.845 L 786.081 195.190 791.227 200.124 C 800.144 208.674, 811.723 213.030, 825.386 212.976 C 838.359 212.924, 848.363 208.637, 858 199 C 869.248 187.752, 874.586 174.291, 875.647 154.500 C 876.702 134.810, 872.513 118.677, 862.988 105.754 C 853.245 92.534, 840.539 86, 824.576 86 C 810.861 86, 801.272 89.737, 791.795 98.777 L 786 104.304 786 72.652 L 786 41 766 41 L 746 41 746 126.021 M 885.999 57.750 L 886 74 905.500 74 L 925 74 925 58.041 L 925 42.082 905.499 41.791 L 885.998 41.500 885.999 57.750 M 135.615 86.329 L 95.731 125.569 137.609 166.784 L 179.487 208 205.965 208 L 232.444 208 189.972 166.011 L 147.500 124.022 185.750 86.111 C 206.787 65.260, 224 47.930, 224 47.600 C 224 47.270, 213.088 47.020, 199.750 47.045 L 175.500 47.090 135.615 86.329 M 276 128.500 L 276 209 297 209 L 318 209 318 177.812 L 318 146.625 349.375 177.812 L 380.750 209 405.625 209.036 C 423.812 209.062, 432.113 209.461, 436.500 210.520 C 447.937 213.282, 461.396 211.899, 471.057 206.971 C 473.255 205.850, 477.966 202.461, 481.526 199.441 L 488 193.949 488 201.474 L 488 209 508 209 L 528 209 528 148.500 L 528 88 508.046 88 L 488.092 88 487.796 124.750 L 487.500 161.500 484.899 167 C 480.542 176.212, 474.831 180.641, 465.953 181.692 C 459.093 182.504, 452.653 179.946, 449.482 175.147 C 445.628 169.316, 444.792 157.483, 445.601 120.250 L 446.302 88 426.151 88 L 406 88 406.020 127.750 C 406.038 163.643, 406.667 176.999, 408.606 182.604 C 408.967 183.647, 395.703 171.002, 379.130 154.505 C 362.557 138.007, 349.110 124.238, 349.248 123.906 C 349.387 123.575, 366.375 106.722, 387 86.455 C 407.625 66.189, 424.650 49.245, 424.833 48.804 C 425.017 48.362, 414.291 48, 400.998 48 L 376.829 48 347.665 76.522 L 318.500 105.043 318.235 76.522 L 317.969 48 296.985 48 L 276 48 276 128.500 M 595.597 86.935 C 588.447 89.289, 580.127 94.857, 575.477 100.401 L 572.039 104.500 572.020 96.250 L 572 88 552.500 88 L 533 88 533 148.500 L 533 209 553 209 L 573 209 573.017 176.250 C 573.030 151.956, 573.398 141.785, 574.443 136.856 C 577.523 122.326, 584.446 115, 595.097 115 C 600.823 115, 605.598 117.322, 607.521 121.040 C 609.885 125.613, 610.933 143.152, 610.969 178.750 L 611 209 630.444 209 L 649.887 209 650.203 172.250 C 650.509 136.694, 650.594 135.316, 652.801 129.833 C 655.796 122.392, 658.456 119.152, 663.421 116.896 C 672.179 112.919, 680.937 115.293, 684.580 122.632 C 686.364 126.226, 686.521 129.422, 686.792 167.750 L 687.083 209 707.132 209 L 727.180 209 726.711 165.750 C 726.394 136.522, 725.845 120.879, 725.017 117.500 C 720.232 97.969, 707.206 86.630, 688 85.279 C 672.977 84.222, 661.146 88.862, 650.741 99.892 L 644.302 106.717 642.448 103.273 C 639.550 97.893, 630.664 90.400, 624.247 87.925 C 616.100 84.783, 603.462 84.347, 595.597 86.935 M 968.974 87.561 C 964.285 88.295, 957.760 89.491, 954.474 90.219 L 948.500 91.544 948.224 106.675 L 947.949 121.806 955.444 118.896 C 968.154 113.960, 975.283 112.658, 990 112.582 C 1000.576 112.527, 1004.627 112.904, 1008.703 114.321 C 1014.463 116.323, 1019.991 121.682, 1020.014 125.285 C 1020.021 126.503, 1020.284 128.457, 1020.598 129.626 C 1021.163 131.733, 1020.982 131.756, 999.834 132.288 C 969.697 133.046, 958.315 135.948, 948.138 145.468 C 940.989 152.155, 938.707 158.027, 938.215 171 C 937.877 179.904, 938.140 182.358, 939.941 187.145 C 944.194 198.449, 952.433 206.398, 963.500 209.877 C 983.120 216.043, 1002.169 211.951, 1015.132 198.785 L 1021 192.825 1021 200.913 L 1021 209 1040.559 209 L 1060.118 209 1059.772 166.750 C 1059.444 126.711, 1059.316 124.208, 1057.323 118.913 C 1053.993 110.067, 1052.085 106.941, 1046.340 100.918 C 1039.913 94.180, 1030.865 89.643, 1019.524 87.473 C 1009.884 85.629, 981.004 85.679, 968.974 87.561 M 886 148.500 L 886 209 905.500 209 L 925 209 925 148.500 L 925 88 905.500 88 L 886 88 886 148.500 M 799.864 116.793 C 789.644 122.115, 785.433 133.115, 786.205 152.473 C 786.712 165.205, 788.748 171.087, 794.795 177.293 C 799.398 182.018, 807.031 184.513, 813.847 183.521 C 826.861 181.626, 834.421 170.894, 835.679 152.525 C 836.380 142.279, 834.876 134.176, 830.764 126.046 C 827.938 120.460, 826.780 119.217, 822.136 116.796 C 814.728 112.934, 807.277 112.933, 799.864 116.793 M 989.646 156.106 C 978.699 158.678, 973.907 168.724, 979.164 178.078 C 982.906 184.737, 992.453 187.472, 1002.098 184.649 C 1012.966 181.469, 1019.971 172.112, 1019.990 160.750 L 1020 155 1006.750 155.100 C 999.462 155.156, 991.766 155.608, 989.646 156.106" stroke="none" fill="#04a4cc" fill-rule="evenodd"/></svg>